# Blender v2.79 (sub 0) OBJ File: 'box.blend'
# www.blender.org
mtllib box.mtl
o particle_Plane.001
v 0.800000 -0.000000 -0.800000
v -0.640000 -0.000000 0.640000
v 0.640000 -0.000000 0.640000
v -0.640000 -0.000000 -0.640000
v 0.640000 -0.000000 -0.640000
v -0.640000 -0.080000 0.640000
v 0.640000 -0.080000 0.640000
v -0.640000 -0.080000 -0.640000
v 0.640000 -0.080000 -0.640000
v -0.800000 -0.000000 -0.800000
v -0.800000 -0.000000 0.800000
v 0.800000 -0.000000 0.800000
v 0.800000 0.080000 -0.800000
v -0.640000 0.080000 0.640000
v 0.640000 0.080000 0.640000
v -0.640000 0.080000 -0.640000
v 0.640000 0.080000 -0.640000
v -0.640000 -0.000000 0.640000
v 0.640000 -0.000000 0.640000
v -0.640000 -0.000000 -0.640000
v 0.640000 -0.000000 -0.640000
v -0.800000 0.080000 -0.800000
v -0.800000 0.080000 0.800000
v 0.800000 0.080000 0.800000
vn 1.0000 0.0000 0.0000
vn 0.0000 -1.0000 0.0000
vn -1.0000 0.0000 0.0000
vn 0.0000 0.0000 -1.0000
vn 0.0000 0.0000 1.0000
vn 0.0000 1.0000 0.0000
usemtl Material.001
s off
f 3//1 7//1 9//1 5//1
f 6//2 8//2 9//2 7//2
f 4//3 8//3 6//3 2//3
f 5//4 9//4 8//4 4//4
f 2//5 6//5 7//5 3//5
f 11//2 2//2 3//2 12//2
f 12//2 3//2 5//2 1//2
f 10//2 4//2 2//2 11//2
f 1//2 5//2 4//2 10//2
f 15//3 17//3 21//3 19//3
f 18//6 19//6 21//6 20//6
f 16//1 14//1 18//1 20//1
f 17//5 16//5 20//5 21//5
f 14//4 15//4 19//4 18//4
f 23//6 24//6 15//6 14//6
f 24//6 13//6 17//6 15//6
f 22//6 23//6 14//6 16//6
f 13//6 22//6 16//6 17//6
f 12//1 1//1 13//1 24//1
f 10//3 11//3 23//3 22//3
f 1//4 10//4 22//4 13//4
f 11//5 12//5 24//5 23//5
o box_Plane
v 0.800000 0.800000 -0.800000
v -0.640000 0.800000 0.640000
v 0.640000 0.800000 0.640000
v -0.640000 0.800000 -0.640000
v 0.640000 0.800000 -0.640000
v -0.640000 0.720000 0.640000
v 0.640000 0.720000 0.640000
v -0.640000 0.720000 -0.640000
v 0.640000 0.720000 -0.640000
v -0.640000 -0.720000 -0.640000
v 0.640000 -0.720000 -0.640000
v -0.640000 -0.720000 0.640000
v 0.640000 -0.720000 0.640000
v -0.640000 -0.800000 -0.640000
v 0.640000 -0.800000 -0.640000
v -0.640000 -0.800000 0.640000
v 0.640000 -0.800000 0.640000
v -0.800000 -0.800000 -0.800000
v -0.800000 -0.800000 0.800000
v 0.800000 -0.800000 0.800000
v 0.800000 0.640000 0.640000
v 0.800000 -0.640000 0.640000
v 0.800000 0.640000 -0.640000
v 0.800000 -0.640000 -0.640000
v 0.720000 0.640000 0.640000
v 0.720000 -0.640000 0.640000
v 0.720000 0.640000 -0.640000
v 0.720000 -0.640000 -0.640000
v -0.720000 0.640000 -0.640000
v -0.720000 -0.640000 -0.640000
v -0.720000 0.640000 0.640000
v -0.720000 -0.640000 0.640000
v -0.800000 0.640000 -0.640000
v -0.800000 -0.640000 -0.640000
v -0.800000 0.640000 0.640000
v -0.800000 -0.640000 0.640000
v -0.800000 0.800000 -0.800000
v -0.800000 0.800000 0.800000
v 0.800000 -0.800000 -0.800000
v 0.640000 0.640000 -0.800000
v 0.640000 -0.640000 -0.800000
v -0.640000 0.640000 -0.800000
v -0.640000 -0.640000 -0.800000
v 0.640000 0.640000 -0.720000
v 0.640000 -0.640000 -0.720000
v -0.640000 0.640000 -0.720000
v -0.640000 -0.640000 -0.720000
v -0.640000 0.640000 0.720000
v -0.640000 -0.640000 0.720000
v 0.640000 0.640000 0.720000
v 0.640000 -0.640000 0.720000
v -0.640000 0.640000 0.800000
v -0.640000 -0.640000 0.800000
v 0.640000 0.640000 0.800000
v 0.640000 -0.640000 0.800000
v 0.800000 0.800000 0.800000
vn -1.0000 0.0000 0.0000
vn 0.0000 1.0000 0.0000
vn 1.0000 0.0000 0.0000
vn 0.0000 0.0000 1.0000
vn 0.0000 0.0000 -1.0000
vn 0.0000 -1.0000 -0.0000
usemtl Material.001
s off
f 27//7 29//7 33//7 31//7
f 30//8 31//8 33//8 32//8
f 28//9 26//9 30//9 32//9
f 29//10 28//10 32//10 33//10
f 26//11 27//11 31//11 30//11
f 43//12 42//12 38//12 40//12
f 38//10 39//10 35//10 34//10
f 39//7 41//7 37//7 35//7
f 41//11 40//11 36//11 37//11
f 37//12 36//12 34//12 35//12
f 40//9 38//9 34//9 36//9
f 44//12 43//12 40//12 41//12
f 46//8 48//8 52//8 50//8
f 49//9 50//9 52//9 51//9
f 47//12 45//12 49//12 51//12
f 48//10 47//10 51//10 52//10
f 45//11 46//11 50//11 49//11
f 62//7 61//7 57//7 59//7
f 57//10 58//10 54//10 53//10
f 58//8 60//8 56//8 54//8
f 60//11 59//11 55//11 56//11
f 56//7 55//7 53//7 54//7
f 59//12 57//12 53//12 55//12
f 65//8 67//8 71//8 69//8
f 68//11 69//11 71//11 70//11
f 66//12 64//12 68//12 70//12
f 67//9 66//9 70//9 71//9
f 64//7 65//7 69//7 68//7
f 76//9 77//9 73//9 72//9
f 77//8 79//8 75//8 73//8
f 79//7 78//7 74//7 75//7
f 75//10 74//10 72//10 73//10
f 78//12 76//12 72//12 74//12
f 62//8 80//8 27//8 26//8
f 80//8 25//8 29//8 27//8
f 61//8 62//8 26//8 28//8
f 25//8 61//8 28//8 29//8
f 42//12 63//12 39//12 38//12
f 63//12 44//12 41//12 39//12
f 80//9 44//9 46//9 45//9
f 44//9 63//9 48//9 46//9
f 25//9 80//9 45//9 47//9
f 63//9 25//9 47//9 48//9
f 61//7 42//7 58//7 57//7
f 43//7 62//7 59//7 60//7
f 42//7 43//7 60//7 58//7
f 25//11 63//11 65//11 64//11
f 63//11 42//11 67//11 65//11
f 61//11 25//11 64//11 66//11
f 42//11 61//11 66//11 67//11
f 80//10 62//10 76//10 78//10
f 62//10 43//10 77//10 76//10
f 44//10 80//10 78//10 79//10
f 43//10 44//10 79//10 77//10
