# Blender v2.79 (sub 0) OBJ File: 'pine_tree.blend'
# www.blender.org
mtllib pine_tree.mtl
o col-colonly_Cylinder.001
v 0.000000 -0.313477 -1.400000
v -0.000000 6.269536 0.000000
v 0.989949 -0.313477 -0.989949
v 0.000000 6.269536 0.000000
v 1.400000 -0.313477 0.000000
v 0.000000 6.269536 0.000000
v 0.989949 -0.313477 0.989949
v 0.000000 6.269536 0.000000
v -0.000000 -0.313477 1.400000
v -0.000000 6.269536 0.000000
v -0.989950 -0.313477 0.989949
v 0.000000 6.269536 0.000000
v -1.400000 -0.313477 -0.000000
v 0.000000 6.269536 0.000000
v -0.989950 -0.313477 -0.989949
v 0.000000 6.269536 0.000000
v 0.000000 1.332276 -1.820000
v 1.286934 1.332276 -1.286934
v 1.820000 1.332276 0.000000
v 1.286934 1.332276 1.286934
v -0.000000 1.332276 1.820000
v -1.286935 1.332276 1.286934
v -1.820000 1.332276 -0.000000
v -1.286935 1.332276 -1.286934
v -0.000000 3.804825 -1.271477
v 0.899070 3.804825 -0.899070
v 1.271477 3.804825 0.000000
v 0.899070 3.804825 0.899070
v -0.000000 3.804825 1.271477
v -0.899070 3.804825 0.899070
v -1.271477 3.804825 -0.000000
v -0.899070 3.804825 -0.899070
vn 0.3455 0.4302 -0.8340
vn 0.8340 0.4302 -0.3455
vn 0.8340 0.4302 0.3455
vn 0.3455 0.4302 0.8340
vn -0.3455 0.4302 0.8340
vn -0.8340 0.4302 0.3455
vn 0.0000 0.0000 1.0000
vn -0.3455 0.4302 -0.8340
vn -0.8340 0.4302 -0.3455
vn 0.0000 -1.0000 0.0000
vn -0.8992 -0.2295 -0.3725
vn -0.3725 -0.2295 -0.8992
vn -0.8992 -0.2295 0.3725
vn -0.3725 -0.2295 0.8992
vn 0.3725 -0.2295 0.8992
vn 0.8992 -0.2295 0.3725
vn 0.8992 -0.2295 -0.3725
vn 0.3725 -0.2295 -0.8992
vn -0.9051 0.2008 -0.3749
vn -0.3749 0.2008 -0.9051
vn -0.9051 0.2008 0.3749
vn -0.3749 0.2008 0.9051
vn 0.3749 0.2008 0.9051
vn 0.9051 0.2008 0.3749
vn 0.9051 0.2008 -0.3749
vn 0.3749 0.2008 -0.9051
usemtl None
s off
f 25//1 2//1 4//1 26//1
f 26//2 4//2 6//2 27//2
f 27//3 6//3 8//3 28//3
f 28//4 8//4 10//4 29//4
f 29//5 10//5 12//5 30//5
f 30//6 12//6 14//6 31//6
f 4//7 2//7 16//7 14//7 12//7 10//7 8//7 6//7
f 32//8 16//8 2//8 25//8
f 31//9 14//9 16//9 32//9
f 1//10 3//10 5//10 7//10 9//10 11//10 13//10 15//10
f 13//11 23//11 24//11 15//11
f 15//12 24//12 17//12 1//12
f 11//13 22//13 23//13 13//13
f 9//14 21//14 22//14 11//14
f 7//15 20//15 21//15 9//15
f 5//16 19//16 20//16 7//16
f 3//17 18//17 19//17 5//17
f 1//18 17//18 18//18 3//18
f 23//19 31//19 32//19 24//19
f 24//20 32//20 25//20 17//20
f 22//21 30//21 31//21 23//21
f 21//22 29//22 30//22 22//22
f 20//23 28//23 29//23 21//23
f 19//24 27//24 28//24 20//24
f 18//25 26//25 27//25 19//25
f 17//26 25//26 26//26 18//26
o pine_tree_Cylinder
v -0.000000 5.205846 -0.891390
v -0.000000 6.416360 -0.000000
v 0.599729 5.141487 -0.599858
v -0.000000 6.416360 -0.000000
v 0.891199 5.205846 0.000000
v -0.000000 6.416360 -0.000000
v 0.599729 5.141487 0.599858
v -0.000000 6.416360 -0.000000
v -0.000000 5.205846 0.891390
v -0.000000 6.416360 -0.000000
v -0.599730 5.141487 0.599858
v -0.000000 6.416360 -0.000000
v -0.891199 5.205846 -0.000000
v -0.000000 6.416360 -0.000000
v -0.599730 5.141487 -0.599858
v -0.000000 6.416360 -0.000000
v -0.000000 5.205846 -0.725264
v 0.487959 5.141487 -0.488064
v 0.725108 5.205846 0.000000
v 0.487959 5.141487 0.488064
v -0.000000 5.205846 0.725264
v -0.487959 5.141487 0.488064
v -0.725108 5.205846 -0.000000
v -0.487959 5.141487 -0.488064
v -0.000000 4.584794 -1.164370
v 0.783391 4.550437 -0.783559
v 1.164120 4.584794 0.000000
v 0.783391 4.550437 0.783559
v -0.000000 4.584794 1.164370
v -0.783391 4.550437 0.783559
v -1.164121 4.584794 -0.000000
v -0.783391 4.550437 -0.783559
v -0.000000 4.584794 -0.831386
v 0.559358 4.550437 -0.559478
v 0.831207 4.584794 0.000000
v 0.559358 4.550437 0.559478
v -0.000000 4.584794 0.831386
v -0.559358 4.550437 0.559478
v -0.831208 4.584794 -0.000000
v -0.559358 4.550437 -0.559478
v -0.000000 3.641697 -1.432502
v 0.963790 3.652901 -0.963997
v 1.432194 3.641697 0.000000
v 0.963790 3.652901 0.963997
v -0.000000 3.641697 1.432502
v -0.963791 3.652901 0.963997
v -1.432195 3.641697 -0.000000
v -0.963791 3.652901 -0.963997
v -0.000000 3.641697 -1.046312
v 0.703961 3.652901 -0.704112
v 1.046087 3.641697 0.000000
v 0.703961 3.652901 0.704112
v -0.000000 3.641697 1.046312
v -0.703962 3.652901 0.704112
v -1.046088 3.641697 -0.000000
v -0.703962 3.652901 -0.704112
v -0.000000 2.817495 -1.576425
v 1.060622 2.868516 -1.060850
v 1.576087 2.817495 0.000000
v 1.060622 2.868516 1.060850
v -0.000000 2.817495 1.576425
v -1.060623 2.868516 1.060850
v -1.576087 2.817495 -0.000000
v -1.060623 2.868516 -1.060850
v -0.000000 2.817495 -1.109564
v 0.746517 2.868516 -0.746678
v 1.109326 2.817495 0.000000
v 0.746517 2.868516 0.746678
v -0.000000 2.817495 1.109564
v -0.746518 2.868516 0.746677
v -1.109327 2.817495 -0.000000
v -0.746518 2.868516 -0.746677
v -0.000000 1.918366 -1.665736
v 1.120711 2.012823 -1.120952
v 1.665379 1.918366 0.000000
v 1.120711 2.012823 1.120952
v -0.000000 1.918366 1.665736
v -1.120712 2.012823 1.120951
v -1.665379 1.918366 -0.000000
v -1.120712 2.012823 -1.120951
v -0.000000 1.918366 -1.207739
v 0.812570 2.012823 -0.812744
v 1.207480 1.918366 0.000000
v 0.812570 2.012823 0.812744
v -0.000000 1.918366 1.207739
v -0.812571 2.012823 0.812744
v -1.207481 1.918366 -0.000000
v -0.812571 2.012823 -0.812744
v -0.000000 1.187824 -1.872255
v 1.259658 1.317573 -1.259928
v 1.871854 1.187824 0.000000
v 1.259658 1.317573 1.259928
v -0.000000 1.187824 1.872255
v -1.259659 1.317573 1.259928
v -1.871854 1.187824 -0.000000
v -1.259659 1.317573 -1.259928
v -0.000000 -0.309790 -0.117466
v -0.014977 1.322207 -0.102447
v 0.083061 -0.309790 -0.083061
v 0.057388 1.325906 -0.072441
v 0.117466 -0.309790 0.000000
v 0.087363 1.327438 0.000000
v 0.083061 -0.309790 0.083061
v 0.057388 1.325906 0.072441
v -0.000000 -0.309790 0.117466
v -0.014977 1.322207 0.102447
v -0.083061 -0.309790 0.083061
v -0.087343 1.318508 0.072441
v -0.117466 -0.309790 -0.000000
v -0.117317 1.316976 -0.000000
v -0.083061 -0.309790 -0.083061
v -0.087343 1.318508 -0.072441
v 0.014977 0.587634 -0.102447
v 0.087342 0.591333 -0.072441
v 0.117317 0.592865 0.000000
v 0.087342 0.591333 0.072441
v 0.014977 0.587634 0.102447
v -0.057389 0.583936 0.072441
v -0.087363 0.582404 -0.000000
v -0.057389 0.583936 -0.072441
vn 0.4142 0.5397 -0.7329
vn 0.7330 0.5397 -0.4141
vn 0.7330 0.5397 0.4141
vn 0.4142 0.5397 0.7329
vn -0.4142 0.5397 0.7329
vn -0.7330 0.5397 0.4141
vn 0.0000 0.0000 1.0000
vn -0.4142 0.5397 -0.7329
vn -0.7330 0.5397 -0.4141
vn 0.0396 -0.9944 -0.0984
vn -0.4006 0.5443 -0.7371
vn -0.0396 -0.9944 -0.0984
vn -0.0984 -0.9944 0.0396
vn -0.0396 -0.9944 0.0984
vn 0.0396 -0.9944 0.0984
vn 0.0984 -0.9944 0.0396
vn 0.0984 -0.9944 -0.0396
vn -0.0984 -0.9944 -0.0396
vn 0.0172 -0.9989 -0.0428
vn -0.7372 0.5443 0.4004
vn 0.4006 0.5443 0.7371
vn 0.7372 0.5443 -0.4004
vn -0.7372 0.5443 -0.4004
vn -0.4006 0.5443 0.7371
vn 0.7372 0.5443 0.4004
vn 0.4006 0.5443 -0.7371
vn -0.7726 0.5062 -0.3831
vn -0.0428 -0.9989 -0.0172
vn 0.0428 -0.9989 -0.0172
vn -0.0172 -0.9989 -0.0428
vn -0.0428 -0.9989 0.0172
vn 0.0172 -0.9989 0.0428
vn -0.0172 -0.9989 0.0428
vn 0.0428 -0.9989 0.0172
vn 0.0112 -0.9999 -0.0045
vn -0.3832 0.5063 0.7725
vn 0.7726 0.5062 0.3831
vn 0.3832 0.5063 -0.7725
vn -0.3832 0.5063 -0.7725
vn -0.7726 0.5062 0.3831
vn 0.3832 0.5063 0.7725
vn 0.7726 0.5062 -0.3831
vn -0.3613 0.5104 -0.7804
vn -0.0045 -0.9999 -0.0112
vn 0.0045 -0.9999 -0.0112
vn -0.0112 -0.9999 -0.0045
vn -0.0045 -0.9999 0.0112
vn 0.0112 -0.9999 0.0045
vn -0.0112 -0.9999 0.0045
vn 0.0045 -0.9999 0.0112
vn -0.0472 -0.9987 -0.0190
vn -0.7805 0.5103 0.3612
vn 0.3613 0.5104 0.7804
vn 0.7805 0.5103 -0.3612
vn -0.7805 0.5103 -0.3612
vn -0.3613 0.5104 0.7804
vn 0.7805 0.5103 0.3612
vn 0.3613 0.5104 -0.7804
vn -0.7956 0.4960 -0.3479
vn -0.0190 -0.9987 0.0472
vn 0.0472 -0.9987 0.0190
vn -0.0472 -0.9987 0.0190
vn 0.0190 -0.9987 0.0472
vn 0.0472 -0.9987 -0.0190
vn -0.0190 -0.9987 -0.0472
vn 0.0190 -0.9987 -0.0472
vn 0.0328 -0.9961 0.0814
vn -0.3481 0.4960 0.7955
vn 0.7956 0.4960 0.3479
vn 0.3481 0.4960 -0.7955
vn -0.3481 0.4960 -0.7955
vn -0.7956 0.4960 0.3479
vn 0.3481 0.4960 0.7955
vn 0.7956 0.4960 -0.3479
vn -0.2773 0.6433 -0.7136
vn 0.0814 -0.9961 -0.0327
vn -0.0328 -0.9961 -0.0814
vn 0.0328 -0.9961 -0.0814
vn -0.0814 -0.9961 -0.0327
vn -0.0328 -0.9961 0.0814
vn 0.0814 -0.9961 0.0327
vn -0.0814 -0.9961 0.0327
vn -0.0000 -1.0000 0.0000
vn -0.7137 0.6433 0.2772
vn 0.2773 0.6433 0.7136
vn 0.7137 0.6433 -0.2772
vn -0.7137 0.6433 -0.2772
vn -0.2773 0.6433 0.7136
vn 0.7137 0.6433 0.2772
vn 0.2773 0.6433 -0.7136
vn 0.3823 0.0156 -0.9239
vn 0.9231 0.0376 -0.3828
vn 0.9231 0.0376 0.3828
vn 0.3823 0.0156 0.9239
vn -0.3823 -0.0156 0.9239
vn -0.9231 -0.0376 0.3828
vn -0.0510 0.9987 0.0000
vn -0.3823 -0.0156 -0.9239
vn -0.9231 -0.0376 -0.3828
vn -0.9236 0.0311 -0.3821
vn -0.3832 0.0219 -0.9234
vn -0.9236 0.0311 0.3821
vn -0.3832 0.0219 0.9234
vn 0.3826 0.0091 0.9239
vn 0.9239 0.0001 0.3825
vn 0.9239 0.0001 -0.3825
vn 0.3826 0.0091 -0.9239
usemtl Material.001
s off
f 33//27 34//27 36//27 35//27
f 35//28 36//28 38//28 37//28
f 37//29 38//29 40//29 39//29
f 39//30 40//30 42//30 41//30
f 41//31 42//31 44//31 43//31
f 43//32 44//32 46//32 45//32
f 36//33 34//33 48//33 46//33 44//33 42//33 40//33 38//33
f 47//34 48//34 34//34 33//34
f 45//35 46//35 48//35 47//35
f 37//36 39//36 52//36 51//36
f 56//37 49//37 57//37 64//37
f 43//38 45//38 55//38 54//38
f 39//39 41//39 53//39 52//39
f 45//40 47//40 56//40 55//40
f 35//41 37//41 51//41 50//41
f 41//42 43//42 54//42 53//42
f 47//43 33//43 49//43 56//43
f 33//44 35//44 50//44 49//44
f 59//45 60//45 68//45 67//45
f 54//46 55//46 63//46 62//46
f 52//47 53//47 61//47 60//47
f 50//48 51//48 59//48 58//48
f 55//49 56//49 64//49 63//49
f 53//50 54//50 62//50 61//50
f 51//51 52//51 60//51 59//51
f 49//52 50//52 58//52 57//52
f 71//53 72//53 80//53 79//53
f 57//54 58//54 66//54 65//54
f 64//55 57//55 65//55 72//55
f 62//56 63//56 71//56 70//56
f 60//57 61//57 69//57 68//57
f 58//58 59//58 67//58 66//58
f 63//59 64//59 72//59 71//59
f 61//60 62//60 70//60 69//60
f 76//61 77//61 85//61 84//61
f 69//62 70//62 78//62 77//62
f 67//63 68//63 76//63 75//63
f 65//64 66//64 74//64 73//64
f 72//65 65//65 73//65 80//65
f 70//66 71//66 79//66 78//66
f 68//67 69//67 77//67 76//67
f 66//68 67//68 75//68 74//68
f 88//69 81//69 89//69 96//69
f 74//70 75//70 83//70 82//70
f 79//71 80//71 88//71 87//71
f 77//72 78//72 86//72 85//72
f 75//73 76//73 84//73 83//73
f 73//74 74//74 82//74 81//74
f 80//75 73//75 81//75 88//75
f 78//76 79//76 87//76 86//76
f 93//77 94//77 102//77 101//77
f 86//78 87//78 95//78 94//78
f 84//79 85//79 93//79 92//79
f 82//80 83//80 91//80 90//80
f 87//81 88//81 96//81 95//81
f 85//82 86//82 94//82 93//82
f 83//83 84//83 92//83 91//83
f 81//84 82//84 90//84 89//84
f 103//85 104//85 112//85 111//85
f 91//86 92//86 100//86 99//86
f 89//87 90//87 98//87 97//87
f 96//88 89//88 97//88 104//88
f 94//89 95//89 103//89 102//89
f 92//90 93//90 101//90 100//90
f 90//91 91//91 99//91 98//91
f 95//92 96//92 104//92 103//92
f 110//93 111//93 119//93 118//93
f 101//94 102//94 110//94 109//94
f 99//95 100//95 108//95 107//95
f 97//96 98//96 106//96 105//96
f 104//97 97//97 105//97 112//97
f 102//98 103//98 111//98 110//98
f 100//99 101//99 109//99 108//99
f 98//100 99//100 107//100 106//100
f 120//101 113//101 121//101 128//101
f 108//102 109//102 117//102 116//102
f 106//103 107//103 115//103 114//103
f 111//104 112//104 120//104 119//104
f 109//105 110//105 118//105 117//105
f 107//106 108//106 116//106 115//106
f 105//107 106//107 114//107 113//107
f 112//108 105//108 113//108 120//108
f 121//109 122//109 123//109 124//109 125//109 126//109 127//109 128//109
f 118//110 119//110 127//110 126//110
f 116//111 117//111 125//111 124//111
f 114//112 115//112 123//112 122//112
f 119//113 120//113 128//113 127//113
f 117//114 118//114 126//114 125//114
f 115//115 116//115 124//115 123//115
f 113//116 114//116 122//116 121//116
usemtl Material.002
f 145//117 130//117 132//117 146//117
f 146//118 132//118 134//118 147//118
f 147//119 134//119 136//119 148//119
f 148//120 136//120 138//120 149//120
f 149//121 138//121 140//121 150//121
f 150//122 140//122 142//122 151//122
f 132//123 130//123 144//123 142//123 140//123 138//123 136//123 134//123
f 152//124 144//124 130//124 145//124
f 151//125 142//125 144//125 152//125
f 129//109 131//109 133//109 135//109 137//109 139//109 141//109 143//109
f 141//126 151//126 152//126 143//126
f 143//127 152//127 145//127 129//127
f 139//128 150//128 151//128 141//128
f 137//129 149//129 150//129 139//129
f 135//130 148//130 149//130 137//130
f 133//131 147//131 148//131 135//131
f 131//132 146//132 147//132 133//132
f 129//133 145//133 146//133 131//133
