# Blender v2.79 (sub 0) OBJ File: 'tomato.blend'
# www.blender.org
mtllib tomato.mtl
o Sphere
v -0.177064 0.113807 0.039642
v -0.198641 0.002883 -0.062899
v -0.190526 -0.110000 -0.000000
v -0.110000 -0.190526 -0.000000
v -0.000000 -0.220000 -0.000000
v -0.085089 0.115032 -0.159192
v -0.184937 0.002883 -0.095984
v -0.134722 -0.110000 -0.134722
v -0.077782 -0.190526 -0.077782
v -0.052399 0.115032 -0.172732
v 0.067134 0.003077 -0.197203
v -0.000000 -0.110000 -0.190526
v -0.000000 -0.190526 -0.110000
v 0.134722 0.110000 -0.134722
v 0.091972 0.003077 -0.186915
v 0.134722 -0.110000 -0.134722
v 0.077782 -0.190526 -0.077782
v 0.190525 0.110000 -0.000000
v 0.199715 0.002738 0.059736
v 0.190525 -0.110000 -0.000000
v 0.110000 -0.190526 -0.000000
v 0.090416 0.114491 0.156565
v 0.183459 0.002738 0.098980
v 0.134722 -0.110000 0.134722
v 0.077782 -0.190526 0.077782
v 0.046774 0.114491 0.174642
v -0.048049 0.002202 0.203684
v -0.000000 -0.110000 0.190526
v -0.000000 -0.190526 0.110000
v -0.153234 0.113807 0.097172
v -0.110051 0.002202 0.178002
v -0.134722 -0.110000 0.134722
v -0.077782 -0.190526 0.077782
v -0.115963 0.208178 -0.000000
v -0.181475 0.119481 0.039642
v -0.201178 0.004441 -0.062899
v -0.081998 0.208178 -0.081998
v -0.086861 0.118256 -0.160964
v -0.186730 0.004441 -0.097778
v -0.000000 0.208178 -0.115963
v -0.052399 0.118256 -0.175238
v 0.067134 0.004247 -0.199107
v -0.000000 0.239250 0.000000
v 0.081998 0.208178 -0.081998
v 0.142025 0.123287 -0.142025
v 0.093319 0.004247 -0.188261
v 0.115963 0.208178 -0.000000
v 0.200854 0.123287 -0.000000
v 0.202724 0.004586 0.059736
v 0.081998 0.208178 0.081998
v 0.092782 0.118796 0.158931
v 0.185587 0.004586 0.101108
v -0.000000 0.208178 0.115963
v 0.046774 0.118796 0.177988
v -0.048049 0.005122 0.208437
v -0.081998 0.208178 0.081998
v -0.156353 0.119481 0.100291
v -0.113412 0.005122 0.181363
vn -0.6786 -0.6786 -0.2811
vn -0.8897 -0.2693 -0.3685
vn -0.3715 0.1576 -0.9149
vn -0.2811 -0.6786 -0.6786
vn -0.3669 -0.1896 -0.9107
vn 0.3683 -0.2712 -0.8893
vn 0.2811 -0.6786 -0.6786
vn -0.8509 -0.4789 -0.2158
vn 0.9090 0.1481 -0.3897
vn -0.5338 -0.5128 0.6724
vn 0.6786 -0.6786 -0.2811
vn 0.9078 -0.1559 -0.3894
vn 0.8901 -0.2679 0.3687
vn 0.2118 -0.8328 -0.5115
vn 0.6786 -0.6786 0.2811
vn 0.7393 -0.5025 0.4482
vn -0.6305 -0.5499 -0.5478
vn 0.2811 -0.6786 0.6786
vn 0.4048 -0.1187 0.9067
vn 0.3997 0.0904 0.9122
vn -0.2811 -0.6786 0.6786
vn -0.2118 -0.8328 0.5114
vn -0.3692 -0.2627 0.8914
vn -0.3108 -0.5833 -0.7504
vn -0.1190 -0.5275 0.8412
vn -0.2573 -0.9604 -0.1066
vn -0.1066 -0.9604 -0.2573
vn 0.0950 -0.5486 -0.8307
vn 0.1066 -0.9604 -0.2573
vn -0.7504 -0.5833 0.3108
vn 0.2573 -0.9604 -0.1066
vn 0.4531 -0.3993 -0.7971
vn -0.5114 -0.8328 -0.2118
vn 0.2573 -0.9604 0.1066
vn 0.3108 -0.5833 0.7504
vn 0.1066 -0.9604 0.2573
vn 0.7504 -0.5833 -0.3108
vn -0.1066 -0.9604 0.2573
vn -0.6786 -0.6786 0.2811
vn -0.9286 -0.1243 0.3495
vn 0.8868 -0.4313 0.1660
vn -0.2573 -0.9604 0.1066
vn -0.9287 0.0994 0.3572
vn 0.5114 -0.8328 0.2118
vn -0.7954 0.4794 -0.3709
vn -0.8294 0.4103 -0.3791
vn -0.2942 0.6396 -0.7102
vn 0.1861 0.5594 -0.8077
vn 0.1774 0.3325 -0.9263
vn 0.6786 0.6786 -0.2811
vn 0.7016 0.5725 0.4243
vn 0.7976 0.3284 0.5059
vn 0.2928 0.6438 0.7069
vn -0.3191 0.4740 0.8207
vn -0.3283 0.4301 0.8410
vn -0.2573 0.9604 -0.1066
vn -0.1066 0.9604 -0.2573
vn 0.1066 0.9604 -0.2573
vn 0.2573 0.9604 -0.1066
vn 0.2573 0.9604 0.1066
vn 0.1066 0.9604 0.2573
vn -0.1066 0.9604 0.2573
vn -0.2573 0.9604 0.1066
vn -0.7028 0.6492 0.2911
usemtl Material.001
s off
f 4//1 3//1 8//1 9//1
f 3//2 2//2 7//2 8//2
f 8//3 7//3 11//3 12//3
f 9//4 8//4 12//4 13//4
f 7//5 6//5 10//5 11//5
f 12//6 11//6 15//6 16//6
f 13//7 12//7 16//7 17//7
f 30//8 31//8 58//8 57//8
f 16//9 15//9 19//9 20//9
f 2//10 1//10 35//10 36//10
f 17//11 16//11 20//11 21//11
f 15//12 14//12 18//12 19//12
f 20//13 19//13 23//13 24//13
f 15//14 11//14 42//14 46//14
f 21//15 20//15 24//15 25//15
f 27//16 26//16 54//16 55//16
f 11//17 10//17 41//17 42//17
f 25//18 24//18 28//18 29//18
f 23//19 22//19 26//19 27//19
f 24//20 23//20 27//20 28//20
f 29//21 28//21 32//21 33//21
f 31//22 27//22 55//22 58//22
f 28//23 27//23 31//23 32//23
f 10//24 6//24 38//24 41//24
f 22//25 23//25 52//25 51//25
f 5//26 4//26 9//26
f 5//27 9//27 13//27
f 6//28 7//28 39//28 38//28
f 5//29 13//29 17//29
f 1//30 30//30 57//30 35//30
f 5//31 17//31 21//31
f 19//32 18//32 48//32 49//32
f 7//33 2//33 36//33 39//33
f 5//34 21//34 25//34
f 26//35 22//35 51//35 54//35
f 5//36 25//36 29//36
f 18//37 14//37 45//37 48//37
f 5//38 29//38 33//38
f 33//39 32//39 3//39 4//39
f 31//40 30//40 1//40 2//40
f 14//41 15//41 46//41 45//41
f 5//42 33//42 4//42
f 32//43 31//43 2//43 3//43
f 23//44 19//44 49//44 52//44
usemtl Material.002
f 36//45 35//45 38//45 39//45
f 35//46 34//46 37//46 38//46
f 38//47 37//47 40//47 41//47
f 41//48 40//48 44//48 45//48
f 42//49 41//49 45//49 46//49
f 45//50 44//50 47//50 48//50
f 48//51 47//51 50//51 51//51
f 49//52 48//52 51//52 52//52
f 51//53 50//53 53//53 54//53
f 55//54 54//54 57//54 58//54
f 54//55 53//55 56//55 57//55
f 34//56 43//56 37//56
f 37//57 43//57 40//57
f 40//58 43//58 44//58
f 44//59 43//59 47//59
f 47//60 43//60 50//60
f 50//61 43//61 53//61
f 53//62 43//62 56//62
f 56//63 43//63 34//63
f 57//64 56//64 34//64 35//64
